solid CATIA STL
  facet normal  0.000000e+000  1.000000e+000  0.000000e+000
    outer loop
      vertex -1.400000e+003 -5.000000e+002  8.500000e+002
      vertex  4.000000e+002 -5.000000e+002  8.500000e+002
      vertex -1.400000e+003 -5.000000e+002 -1.500000e+002
    endloop
  endfacet
  facet normal  0.000000e+000  1.000000e+000  0.000000e+000
    outer loop
      vertex -1.400000e+003 -5.000000e+002 -1.500000e+002
      vertex  4.000000e+002 -5.000000e+002  8.500000e+002
      vertex  4.000000e+002 -5.000000e+002 -1.500000e+002
    endloop
  endfacet
  facet normal  0.000000e+000  0.000000e+000 -1.000000e+000
    outer loop
      vertex -1.400000e+003 -5.000000e+002  8.500000e+002
      vertex -1.400000e+003  5.000000e+002  8.500000e+002
      vertex  4.000000e+002 -5.000000e+002  8.500000e+002
    endloop
  endfacet
  facet normal  0.000000e+000  0.000000e+000 -1.000000e+000
    outer loop
      vertex  4.000000e+002 -5.000000e+002  8.500000e+002
      vertex -1.400000e+003  5.000000e+002  8.500000e+002
      vertex  4.000000e+002  5.000000e+002  8.500000e+002
    endloop
  endfacet
  facet normal  0.000000e+000 -1.000000e+000  0.000000e+000
    outer loop
      vertex -1.400000e+003  5.000000e+002 -1.500000e+002
      vertex  4.000000e+002  5.000000e+002 -1.500000e+002
      vertex -1.400000e+003  5.000000e+002  8.500000e+002
    endloop
  endfacet
  facet normal  0.000000e+000 -1.000000e+000  0.000000e+000
    outer loop
      vertex -1.400000e+003  5.000000e+002  8.500000e+002
      vertex  4.000000e+002  5.000000e+002 -1.500000e+002
      vertex  4.000000e+002  5.000000e+002  8.500000e+002
    endloop
  endfacet
  facet normal  0.000000e+000  0.000000e+000  1.000000e+000
    outer loop
      vertex -1.400000e+003  5.000000e+002 -1.500000e+002
      vertex -1.400000e+003 -5.000000e+002 -1.500000e+002
      vertex  4.000000e+002  5.000000e+002 -1.500000e+002
    endloop
  endfacet
  facet normal  0.000000e+000  0.000000e+000  1.000000e+000
    outer loop
      vertex  4.000000e+002  5.000000e+002 -1.500000e+002
      vertex -1.400000e+003 -5.000000e+002 -1.500000e+002
      vertex  4.000000e+002 -5.000000e+002 -1.500000e+002
    endloop
  endfacet
  facet normal -1.000000e+000  0.000000e+000  0.000000e+000
    outer loop
      vertex  4.000000e+002 -5.000000e+002 -1.500000e+002
      vertex  4.000000e+002 -5.000000e+002  8.500000e+002
      vertex  4.000000e+002  5.000000e+002 -1.500000e+002
    endloop
  endfacet
  facet normal -1.000000e+000  0.000000e+000  0.000000e+000
    outer loop
      vertex  4.000000e+002  5.000000e+002 -1.500000e+002
      vertex  4.000000e+002 -5.000000e+002  8.500000e+002
      vertex  4.000000e+002  5.000000e+002  8.500000e+002
    endloop
  endfacet
  facet normal  1.000000e+000  0.000000e+000  0.000000e+000
    outer loop
      vertex -1.400000e+003 -5.000000e+002 -1.500000e+002
      vertex -1.400000e+003  5.000000e+002 -1.500000e+002
      vertex -1.400000e+003 -5.000000e+002  8.500000e+002
    endloop
  endfacet
  facet normal  1.000000e+000  -0.000000e+000  0.000000e+000
    outer loop
      vertex -1.400000e+003 -5.000000e+002  8.500000e+002
      vertex -1.400000e+003  5.000000e+002 -1.500000e+002
      vertex -1.400000e+003  5.000000e+002  8.500000e+002
    endloop
  endfacet
  facet normal  9.999999e-001  0.000000e+000  0.000000e+000
    outer loop
      vertex  8.200000e+002 -9.200000e+002 -5.700000e+002
      vertex  8.200000e+002  9.200000e+002 -5.700000e+002
      vertex  8.200000e+002 -9.200000e+002  1.270000e+003
    endloop
  endfacet
  facet normal  9.999999e-001  -0.000000e+000  0.000000e+000
    outer loop
      vertex  8.200000e+002 -9.200000e+002  1.270000e+003
      vertex  8.200000e+002  9.200000e+002 -5.700000e+002
      vertex  8.200000e+002  9.200000e+002  1.270000e+003
    endloop
  endfacet
  facet normal -9.999999e-001  0.000000e+000  0.000000e+000
    outer loop
      vertex -1.820000e+003 -9.200000e+002 -5.700000e+002
      vertex -1.820000e+003 -9.200000e+002  1.270000e+003
      vertex -1.820000e+003  9.200000e+002 -5.700000e+002
    endloop
  endfacet
  facet normal -9.999999e-001  0.000000e+000  0.000000e+000
    outer loop
      vertex -1.820000e+003  9.200000e+002 -5.700000e+002
      vertex -1.820000e+003 -9.200000e+002  1.270000e+003
      vertex -1.820000e+003  9.200000e+002  1.270000e+003
    endloop
  endfacet
  facet normal  0.000000e+000  0.000000e+000  1.000000e+000
    outer loop
      vertex -1.820000e+003 -9.200000e+002  1.270000e+003
      vertex  8.200000e+002 -9.200000e+002  1.270000e+003
      vertex -1.820000e+003  9.200000e+002  1.270000e+003
    endloop
  endfacet
  facet normal  -0.000000e+000  0.000000e+000  1.000000e+000
    outer loop
      vertex -1.820000e+003  9.200000e+002  1.270000e+003
      vertex  8.200000e+002 -9.200000e+002  1.270000e+003
      vertex  8.200000e+002  9.200000e+002  1.270000e+003
    endloop
  endfacet
  facet normal  0.000000e+000 -1.000000e+000  0.000000e+000
    outer loop
      vertex -1.820000e+003 -9.200000e+002  1.270000e+003
      vertex -1.820000e+003 -9.200000e+002 -5.700000e+002
      vertex  8.200000e+002 -9.200000e+002  1.270000e+003
    endloop
  endfacet
  facet normal  0.000000e+000 -1.000000e+000  -0.000000e+000
    outer loop
      vertex  8.200000e+002 -9.200000e+002  1.270000e+003
      vertex -1.820000e+003 -9.200000e+002 -5.700000e+002
      vertex  8.200000e+002 -9.200000e+002 -5.700000e+002
    endloop
  endfacet
  facet normal  -0.000000e+000  0.000000e+000 -1.000000e+000
    outer loop
      vertex -1.820000e+003  9.200000e+002 -5.700000e+002
      vertex  8.200000e+002  9.200000e+002 -5.700000e+002
      vertex -1.820000e+003 -9.200000e+002 -5.700000e+002
    endloop
  endfacet
  facet normal  0.000000e+000  0.000000e+000 -1.000000e+000
    outer loop
      vertex -1.820000e+003 -9.200000e+002 -5.700000e+002
      vertex  8.200000e+002  9.200000e+002 -5.700000e+002
      vertex  8.200000e+002 -9.200000e+002 -5.700000e+002
    endloop
  endfacet
  facet normal  0.000000e+000  1.000000e+000  0.000000e+000
    outer loop
      vertex -1.820000e+003  9.200000e+002 -5.700000e+002
      vertex -1.820000e+003  9.200000e+002  1.270000e+003
      vertex  8.200000e+002  9.200000e+002 -5.700000e+002
    endloop
  endfacet
  facet normal  0.000000e+000  1.000000e+000  -0.000000e+000
    outer loop
      vertex  8.200000e+002  9.200000e+002 -5.700000e+002
      vertex -1.820000e+003  9.200000e+002  1.270000e+003
      vertex  8.200000e+002  9.200000e+002  1.270000e+003
    endloop
  endfacet
endsolid CATIA STL
